<?xml version="1.0" encoding="iso-8859-1"?>
<!-- Generator: Adobe Illustrator 19.0.0, SVG Export Plug-In . SVG Version: 6.00 Build 0)  -->
<svg version="1.1" id="Capa_1" xmlns="http://www.w3.org/2000/svg" xmlns:xlink="http://www.w3.org/1999/xlink" x="0px" y="0px"
	 viewBox="0 0 480 480" style="enable-background:new 0 0 480 480;" xml:space="preserve">
<linearGradient id="SVGID_1_" gradientUnits="userSpaceOnUse" x1="-23.875" y1="556.535" x2="-23.875" y2="621.002" gradientTransform="matrix(8 0 0 -8 455 4941)">
	<stop  offset="0" style="stop-color:#006DF0"/>
	<stop  offset="1" style="stop-color:#00E7F0"/>
</linearGradient>
<path style="fill:url(#SVGID_1_);" d="M264,240c-13.255,0-24,10.745-24,24s10.745,24,24,24s24-10.745,24-24S277.255,240,264,240z
	 M264,272c-4.418,0-8-3.582-8-8s3.582-8,8-8s8,3.582,8,8S268.418,272,264,272z"/>
<g>
	
		<linearGradient id="SVGID_2_" gradientUnits="userSpaceOnUse" x1="-15.875" y1="556.535" x2="-15.875" y2="621.002" gradientTransform="matrix(8 0 0 -8 455 4941)">
		<stop  offset="0" style="stop-color:#006DF0"/>
		<stop  offset="1" style="stop-color:#00E7F0"/>
	</linearGradient>
	<path style="fill:url(#SVGID_2_);" d="M328,240c-13.255,0-24,10.745-24,24s10.745,24,24,24s24-10.745,24-24S341.255,240,328,240z
		 M328,272c-4.418,0-8-3.582-8-8s3.582-8,8-8s8,3.582,8,8S332.418,272,328,272z"/>
	
		<linearGradient id="SVGID_3_" gradientUnits="userSpaceOnUse" x1="-7.875" y1="556.535" x2="-7.875" y2="621.002" gradientTransform="matrix(8 0 0 -8 455 4941)">
		<stop  offset="0" style="stop-color:#006DF0"/>
		<stop  offset="1" style="stop-color:#00E7F0"/>
	</linearGradient>
	<path style="fill:url(#SVGID_3_);" d="M392,240c-13.255,0-24,10.745-24,24s10.745,24,24,24s24-10.745,24-24S405.255,240,392,240z
		 M392,272c-4.418,0-8-3.582-8-8s3.582-8,8-8s8,3.582,8,8S396.418,272,392,272z"/>
</g>
<linearGradient id="SVGID_4_" gradientUnits="userSpaceOnUse" x1="-23.875" y1="556.535" x2="-23.875" y2="621.002" gradientTransform="matrix(8 0 0 -8 455 4941)">
	<stop  offset="0" style="stop-color:#006DF0"/>
	<stop  offset="1" style="stop-color:#00E7F0"/>
</linearGradient>
<path style="fill:url(#SVGID_4_);" d="M264,304c-13.255,0-24,10.745-24,24s10.745,24,24,24s24-10.745,24-24S277.255,304,264,304z
	 M264,336c-4.418,0-8-3.582-8-8s3.582-8,8-8s8,3.582,8,8S268.418,336,264,336z"/>
<g>
	
		<linearGradient id="SVGID_5_" gradientUnits="userSpaceOnUse" x1="-15.875" y1="556.535" x2="-15.875" y2="621.002" gradientTransform="matrix(8 0 0 -8 455 4941)">
		<stop  offset="0" style="stop-color:#006DF0"/>
		<stop  offset="1" style="stop-color:#00E7F0"/>
	</linearGradient>
	<path style="fill:url(#SVGID_5_);" d="M328,304c-13.255,0-24,10.745-24,24s10.745,24,24,24s24-10.745,24-24S341.255,304,328,304z
		 M328,336c-4.418,0-8-3.582-8-8s3.582-8,8-8s8,3.582,8,8S332.418,336,328,336z"/>
	
		<linearGradient id="SVGID_6_" gradientUnits="userSpaceOnUse" x1="-7.875" y1="556.535" x2="-7.875" y2="621.002" gradientTransform="matrix(8 0 0 -8 455 4941)">
		<stop  offset="0" style="stop-color:#006DF0"/>
		<stop  offset="1" style="stop-color:#00E7F0"/>
	</linearGradient>
	<path style="fill:url(#SVGID_6_);" d="M392,304c-13.255,0-24,10.745-24,24s10.745,24,24,24s24-10.745,24-24S405.255,304,392,304z
		 M392,336c-4.418,0-8-3.582-8-8s3.582-8,8-8s8,3.582,8,8S396.418,336,392,336z"/>
</g>
<linearGradient id="SVGID_7_" gradientUnits="userSpaceOnUse" x1="-23.875" y1="556.535" x2="-23.875" y2="621.002" gradientTransform="matrix(8 0 0 -8 455 4941)">
	<stop  offset="0" style="stop-color:#006DF0"/>
	<stop  offset="1" style="stop-color:#00E7F0"/>
</linearGradient>
<path style="fill:url(#SVGID_7_);" d="M264,368c-13.255,0-24,10.745-24,24s10.745,24,24,24s24-10.745,24-24S277.255,368,264,368z
	 M264,400c-4.418,0-8-3.582-8-8s3.582-8,8-8s8,3.582,8,8S268.418,400,264,400z"/>
<g>
	
		<linearGradient id="SVGID_8_" gradientUnits="userSpaceOnUse" x1="-15.875" y1="556.535" x2="-15.875" y2="621.002" gradientTransform="matrix(8 0 0 -8 455 4941)">
		<stop  offset="0" style="stop-color:#006DF0"/>
		<stop  offset="1" style="stop-color:#00E7F0"/>
	</linearGradient>
	<path style="fill:url(#SVGID_8_);" d="M328,368c-13.255,0-24,10.745-24,24s10.745,24,24,24s24-10.745,24-24S341.255,368,328,368z
		 M328,400c-4.418,0-8-3.582-8-8s3.582-8,8-8s8,3.582,8,8S332.418,400,328,400z"/>
	
		<linearGradient id="SVGID_9_" gradientUnits="userSpaceOnUse" x1="-7.875" y1="556.535" x2="-7.875" y2="621.002" gradientTransform="matrix(8 0 0 -8 455 4941)">
		<stop  offset="0" style="stop-color:#006DF0"/>
		<stop  offset="1" style="stop-color:#00E7F0"/>
	</linearGradient>
	<path style="fill:url(#SVGID_9_);" d="M392,368c-13.255,0-24,10.745-24,24s10.745,24,24,24s24-10.745,24-24S405.255,368,392,368z
		 M392,400c-4.418,0-8-3.582-8-8s3.582-8,8-8s8,3.582,8,8S396.418,400,392,400z"/>
	
		<linearGradient id="SVGID_10_" gradientUnits="userSpaceOnUse" x1="-26.875" y1="556.535" x2="-26.875" y2="621.002" gradientTransform="matrix(8 0 0 -8 455 4941)">
		<stop  offset="0" style="stop-color:#006DF0"/>
		<stop  offset="1" style="stop-color:#00E7F0"/>
	</linearGradient>
	<path style="fill:url(#SVGID_10_);" d="M456,128h-32V36.872L387.2,0H232v128h-58.4c-7.092-23.694-28.868-39.945-53.6-40h-16
		c-24.732,0.055-46.508,16.306-53.6,40H24c-13.255,0-24,10.745-24,24v272c0,13.255,10.745,24,24,24l0,0h29.48
		c9.258,19.518,28.917,31.97,50.52,32h16c21.603-0.03,41.262-12.482,50.52-32H456c13.255,0,24-10.745,24-24l0,0V152
		C480,138.745,469.255,128,456,128z M248,16h132.584L408,43.488V128H248V16z M24,432c-4.418,0-8-3.582-8-8V152c0-4.418,3.582-8,8-8
		h24v280c0.022,2.678,0.236,5.352,0.64,8H24z M160,424c-0.026,22.08-17.92,39.974-40,40h-16c-22.08-0.026-39.974-17.92-40-40V144
		c0.026-22.08,17.92-39.974,40-40h16c22.08,0.026,39.974,17.92,40,40V424z M464,424c0,4.418-3.582,8-8,8H175.36
		c0.404-2.648,0.618-5.322,0.64-8V144h280c4.418,0,8,3.582,8,8V424z"/>
	
		<linearGradient id="SVGID_11_" gradientUnits="userSpaceOnUse" x1="-15.875" y1="556.535" x2="-15.875" y2="621.002" gradientTransform="matrix(8 0 0 -8 455 4941)">
		<stop  offset="0" style="stop-color:#006DF0"/>
		<stop  offset="1" style="stop-color:#00E7F0"/>
	</linearGradient>
	<path style="fill:url(#SVGID_11_);" d="M232,224h192v-64H232V224z M248,176h160v32H248V176z"/>
	
		<linearGradient id="SVGID_12_" gradientUnits="userSpaceOnUse" x1="-16.875" y1="556.535" x2="-16.875" y2="621.002" gradientTransform="matrix(8 0 0 -8 455 4941)">
		<stop  offset="0" style="stop-color:#006DF0"/>
		<stop  offset="1" style="stop-color:#00E7F0"/>
	</linearGradient>
	<path style="fill:url(#SVGID_12_);" d="M264,32h112v16H264V32z"/>
	
		<linearGradient id="SVGID_13_" gradientUnits="userSpaceOnUse" x1="-16.875" y1="556.535" x2="-16.875" y2="621.002" gradientTransform="matrix(8 0 0 -8 455 4941)">
		<stop  offset="0" style="stop-color:#006DF0"/>
		<stop  offset="1" style="stop-color:#00E7F0"/>
	</linearGradient>
	<path style="fill:url(#SVGID_13_);" d="M264,64h112v16H264V64z"/>
	
		<linearGradient id="SVGID_14_" gradientUnits="userSpaceOnUse" x1="-16.875" y1="556.535" x2="-16.875" y2="621.002" gradientTransform="matrix(8 0 0 -8 455 4941)">
		<stop  offset="0" style="stop-color:#006DF0"/>
		<stop  offset="1" style="stop-color:#00E7F0"/>
	</linearGradient>
	<path style="fill:url(#SVGID_14_);" d="M264,96h112v16H264V96z"/>
</g>
<g>
</g>
<g>
</g>
<g>
</g>
<g>
</g>
<g>
</g>
<g>
</g>
<g>
</g>
<g>
</g>
<g>
</g>
<g>
</g>
<g>
</g>
<g>
</g>
<g>
</g>
<g>
</g>
<g>
</g>
</svg>
